<?xml version="1.0" encoding="UTF-8"?>
<svg width="347px" height="154px" viewBox="0 0 347 154" version="1.1" xmlns="http://www.w3.org/2000/svg" xmlns:xlink="http://www.w3.org/1999/xlink">
    <!-- Generator: Sketch 41 (35326) - http://www.bohemiancoding.com/sketch -->
    <title>SDL Logo Master</title>
    <desc>Created with Sketch.</desc>
    <defs></defs>
    <g id="Symbols" stroke="none" stroke-width="1" fill="none" fill-rule="evenodd">
        <g id="SDL-Logo-Master">
            <g id="SDL" transform="translate(0.000000, 30.000000)" fill="#5D6E7F">
                <path d="M169.476138,73.9822306 C169.476138,89.8254085 160.675794,94.4682552 147.512278,94.4682552 L127.839007,94.4682552 C127.684001,94.4682552 127.6525,94.3679313 127.6525,94.1832556 L127.6525,28.9148733 C127.6525,28.8015723 127.688502,28.7686301 127.824507,28.7686301 L147.850791,28.7686301 C160.370782,28.7686301 169.476138,34.7755813 169.476138,47.3405161 L169.476138,73.9822306 Z M150.239885,2.2467052 L102.098999,2.2467052 C97.6248239,2.2467052 97.599823,6.26165456 97.599823,6.26165456 L97.599823,117.477349 C97.599823,120.966721 100.652443,121.304628 104.384089,121.304628 L147.116763,121.304628 C181.927626,121.304628 200.361848,109.062626 200.361848,76.671508 L200.361848,45.4967539 C200.361848,10.3170329 175.605378,2.2467052 150.239885,2.2467052 L150.239885,2.2467052 Z M296.897629,107.810824 C296.584617,114.754131 295.093559,121.304628 293.163983,121.304628 L229.800501,121.304628 C219.697605,121.304628 217.854533,119.053581 217.854533,117.145931 L217.854533,5.67518446 C217.854533,2.229735 225.526334,1.02834476 234.168172,0.590114336 C243.03952,0.1389067 247.88821,0.924027951 247.88821,5.13064073 L247.88821,93.6172496 C247.88821,94.5021956 248.515734,94.6609168 248.92575,94.6609168 L292.460456,94.6609168 C296.596618,94.6609168 297.310646,98.6499118 296.897629,107.810824 L296.897629,107.810824 Z M35.1683775,123.3705 C15.9701255,123.3705 4.82668906,121.000163 1.8560727,118.947767 C0.0735028814,117.715431 -0.734028749,116.666273 0.841032945,105.960074 C1.64606448,100.489182 4.76818677,93.2279333 9.23636179,94.8855224 C14.0435501,96.6683915 53.4170923,104.081873 53.4170923,88.6749288 C53.4170923,71.8814198 2.72310667,77.7356393 2.72310667,34.5469828 C2.72310667,15.1984607 11.130436,0.3705 47.6448662,0.3705 C69.2727134,0.3705 76.5009965,4.1313955 78.4720737,4.96393348 C80.6676597,5.89130493 81.6131968,8.77274484 80.1761405,18.1482805 C79.1260993,24.9992495 75.4034535,29.0651095 72.4118363,28.1332459 C64.3285197,25.6146688 32.2342626,21.7369784 32.2342626,33.9385512 C32.2342626,50.7425418 82.9047474,45.1164218 82.9047474,89.1226426 C82.9047474,109.214859 73.9913982,123.3705 35.1683775,123.3705 L35.1683775,123.3705 Z" id="Fill-1"></path>
            </g>
            <g id="Asterisk" transform="translate(268.000000, 0.000000)" fill="#25BD59">
                <path d="M37.79075,43.44615 L40.63525,40.05565 L43.48025,36.66565 C43.91325,36.14915 44.51825,35.85715 45.14425,35.80265 C45.76975,35.74765 46.41625,35.93015 46.93175,36.36365 L60.41625,47.67765 L73.89975,58.99165 C74.41575,59.42465 74.70775,60.02965 74.76225,60.65565 C74.81725,61.28115 74.63475,61.92765 74.20125,62.44365 L71.35675,65.83415 L68.51175,69.22415 C68.07875,69.74065 67.47325,70.03265 66.84775,70.08765 C66.22225,70.14215 65.57575,69.95965 65.05975,69.52665 L51.57575,58.21215 L38.09275,46.89815 C37.57625,46.46515 37.28375,45.86015 37.22975,45.23465 C37.17525,44.60865 37.35775,43.96215 37.79075,43.44615" id="Fill-4"></path>
                <path d="M21.50855,75.58165 L25.61205,77.23965 L29.71555,78.89765 C30.34005,79.14965 31.01205,79.12365 31.58955,78.87815 C32.16755,78.63315 32.65305,78.16815 32.90605,77.54365 L39.49905,61.22365 L46.09255,44.90365 C46.34555,44.27915 46.31905,43.60765 46.07405,43.02965 C45.82855,42.45115 45.36405,41.96615 44.73905,41.71365 L40.63555,40.05615 L36.53205,38.39815 C35.90755,38.14565 35.23555,38.17165 34.65805,38.41715 C34.08005,38.66265 33.59505,39.12715 33.34255,39.75215 L26.74805,56.07215 L20.15505,72.39165 C19.90205,73.01665 19.92855,73.68765 20.17355,74.26615 C20.41905,74.84415 20.88355,75.32915 21.50855,75.58165" id="Fill-6"></path>
                <path d="M44.92945,38.9852 L40.63495,40.0557 L36.34095,41.1267 C35.68745,41.2897 35.02595,41.1702 34.48745,40.8467 C33.94945,40.5232 33.53345,39.9957 33.37095,39.3417 L29.11245,22.2632 L24.85445,5.1842 C24.69095,4.5307 24.81095,3.8692 25.13395,3.3312 C25.45795,2.7927 25.98495,2.3772 26.63895,2.2142 L30.93395,1.1432 L35.22795,0.0727 C35.88145,-0.0903 36.54295,0.0287 37.08145,0.3522 C37.61895,0.6757 38.03495,1.2037 38.19795,1.8572 L42.45645,18.9362 L46.71445,36.0147 C46.87745,36.6687 46.75795,37.3297 46.43495,37.8682 C46.11095,38.4067 45.58395,38.8222 44.92945,38.9852" id="Fill-8"></path>
                <path d="M76.9905,22.5575 L74.6455,18.8045 L72.2565,14.9815 C71.8995,14.41 71.341,14.0365 70.7295,13.895 C70.117,13.754 69.452,13.8445 68.88,14.202 L53.9535,23.529 L39.026,32.8565 C38.455,33.2135 38.0815,33.772 37.94,34.384 C37.7985,34.996 37.8895,35.6615 38.247,36.233 L40.6355,40.056 L42.9805,43.8095 C43.3375,44.3805 43.8965,44.754 44.508,44.8955 C45.1205,45.0365 45.786,44.946 46.357,44.589 L61.284,35.2615 L76.211,25.934 C76.7825,25.577 77.156,25.0185 77.297,24.4065 C77.4385,23.7945 77.3475,23.129 76.9905,22.5575" id="Fill-10"></path>
                <path d="M40.9441,35.64095 L40.6356,40.05595 L40.3266,44.47095 C40.2796,45.14295 39.9621,45.73495 39.4881,46.14695 C39.0141,46.55895 38.3836,46.79145 37.7111,46.74445 L20.1526,45.51645 L2.5941,44.28845 C1.9216,44.24145 1.3296,43.92395 0.9181,43.44995 C0.5056,42.97595 0.2736,42.34545 0.3206,41.67345 L0.6291,37.25845 L0.9381,32.84345 C0.9851,32.17145 1.3026,31.57945 1.7766,31.16745 C2.2506,30.75545 2.8811,30.52295 3.5531,30.56995 L21.1121,31.79795 L38.6706,33.02545 C39.3426,33.07245 39.9341,33.39045 40.3466,33.86445 C40.7586,34.33845 40.9911,34.96895 40.9441,35.64095" id="Fill-12"></path>
            </g>
        </g>
    </g>
</svg>